<svg aria-hidden="true" style="position: absolute; width: 0; height: 0; overflow: hidden;" version="1.1"
    xmlns="http://www.w3.org/2000/svg" xmlns:xlink="http://www.w3.org/1999/xlink">
    <defs>
        <symbol id="icon-last" viewBox="0 0 32 32">
            <path fill="#85aa9f" style="fill: var(--color1, #85aa9f)"
                d="M8.547 8l-1.88 1.88 6.107 6.12-6.107 6.12 1.88 1.88 8-8-8-8z"></path>
            <path fill="#85aa9f" style="fill: var(--color1, #85aa9f)"
                d="M17.333 8l-1.88 1.88 6.107 6.12-6.107 6.12 1.88 1.88 8-8-8-8z"></path>
        </symbol>
        <symbol id="icon-vector" viewBox="0 0 20 32">
            <path d="M3.76 0l-3.76 3.76 12.213 12.24-12.213 12.24 3.76 3.76 16-16-16-16z"></path>
        </symbol>
        <symbol id="icon-logo" viewBox="0 0 32 32">
            <path fill="#85aa9f" style="fill: var(--color1, #85aa9f)"
                d="M32 16c0 8.837-7.163 16-16 16s-16-7.163-16-16c0-8.837 7.163-16 16-16s16 7.163 16 16z"></path>
            <path fill="#fcfcfc" style="fill: var(--color2, #fcfcfc)"
                d="M16.354 15.2c4.755-3.586 4.965-5.76 0-9.6-5.060 3.922-4.408 6.001 0 9.6zM15.2 16.446c-3.586-4.755-5.76-4.965-9.6 0 3.922 5.060 6.001 4.408 9.6 0zM27.2 16.446c-3.586-4.755-5.76-4.965-9.6 0 3.922 5.060 6.001 4.408 9.6 0zM16.354 27.2c4.755-3.586 4.965-5.76 0-9.6-5.060 3.922-4.408 6.001 0 9.6z">
            </path>
        </symbol>
        <symbol id="icon-eye" viewBox="0 0 32 32">
            <path stroke-linejoin="round" stroke-linecap="round" stroke-miterlimit="4" stroke-width="3.2"
                d="M1.333 16c0 0 5.333-10.667 14.667-10.667s14.667 10.667 14.667 10.667-5.333 10.667-14.667 10.667c-9.333 0-14.667-10.667-14.667-10.667z">
            </path>
            <path stroke-linejoin="round" stroke-linecap="round" stroke-miterlimit="4" stroke-width="3.2"
                d="M16 20c2.209 0 4-1.791 4-4s-1.791-4-4-4c-2.209 0-4 1.791-4 4s1.791 4 4 4z"></path>
        </symbol>
        <symbol id="icon-trash-03" viewBox="0 0 32 32">
            <path stroke-linejoin="round" stroke-linecap="round" stroke-miterlimit="4" stroke-width="2.88"
                d="M12 4h8M13.333 14v6.667M18.667 14v6.667"></path>
            <path stroke-linejoin="round" stroke-linecap="round" stroke-miterlimit="4" stroke-width="2.88"
                d="M4 8h24M25.333 8l-0.935 14.026c-0.14 2.104-0.21 3.156-0.665 3.954-0.4 0.702-1.004 1.267-1.731 1.62-0.826 0.4-1.881 0.4-3.99 0.4h-4.025c-2.109 0-3.163 0-3.99-0.4-0.727-0.352-1.331-0.917-1.731-1.62-0.455-0.798-0.525-1.85-0.665-3.954l-0.935-14.026">
            </path>
        </symbol>
        <symbol id="icon-edit-01" viewBox="0 0 32 32">
            <path stroke="#85AA9F" stroke-linejoin="round" stroke-linecap="round" stroke-miterlimit="4"
                stroke-width="2.88"
                d="M3.835 24.154c0.061-0.551 0.092-0.827 0.175-1.085 0.074-0.229 0.179-0.446 0.311-0.647 0.149-0.226 0.345-0.422 0.737-0.814l17.608-17.608c1.473-1.473 3.861-1.473 5.333 0s1.473 3.861 0 5.333l-17.608 17.608c-0.392 0.392-0.588 0.588-0.814 0.737-0.201 0.132-0.418 0.237-0.647 0.311-0.258 0.084-0.533 0.114-1.085 0.175l-4.513 0.501 0.501-4.512z">
            </path>
        </symbol>
        <symbol id="icon-eye-off" viewBox="0 0 32 32">
            <path stroke-linejoin="round" stroke-linecap="round" stroke-miterlimit="4" stroke-width="3.2"
                d="M23.92 23.92c-2.279 1.737-5.054 2.7-7.92 2.747-9.333 0-14.667-10.667-14.667-10.667 1.659-3.091 3.959-5.791 6.747-7.92M13.2 5.653c0.918-0.215 1.857-0.322 2.8-0.32 9.333 0 14.667 10.667 14.667 10.667-0.809 1.514-1.775 2.94-2.88 4.253M18.827 18.827c-0.366 0.393-0.808 0.708-1.298 0.927s-1.020 0.336-1.557 0.346c-0.537 0.009-1.071-0.089-1.569-0.291s-0.95-0.501-1.33-0.88c-0.38-0.38-0.679-0.832-0.88-1.33s-0.3-1.032-0.29-1.569c0.009-0.537 0.127-1.067 0.346-1.558s0.534-0.932 0.927-1.298">
            </path>
            <path stroke-linejoin="round" stroke-linecap="round" stroke-miterlimit="4" stroke-width="3.2"
                d="M1.333 1.333l29.333 29.333"></path>
        </symbol>
        <symbol id="icon-switch-horizontal-01-1" viewBox="0 0 32 32">
            <path fill="none" stroke="#000" style="stroke:  #000" stroke-linejoin="round" stroke-linecap="round"
                stroke-miterlimit="4" stroke-width="2.4"
                d="M5.333 16h21.333M26.667 16l-5.333-5.333M26.667 16l-5.333 5.333"></path>
        </symbol>
        <symbol id="icon-plus" viewBox="0 0 32 32">
            <path fill="none" stroke="#85aa9f" style="stroke: var(--color1, #85aa9f)" stroke-linejoin="round"
                stroke-linecap="round" stroke-miterlimit="4" stroke-width="2.4" d="M16 6.667v18.667"></path>
            <path fill="none" stroke="#85aa9f" style="stroke: var(--color1, #85aa9f)" stroke-linejoin="round"
                stroke-linecap="round" stroke-miterlimit="4" stroke-width="2.4" d="M6.667 16h18.667"></path>
        </symbol>
        <symbol id="icon-switch-horizontal-01" viewBox="0 0 32 32">
            <path fill="none" stroke="#85aa9f" style="stroke: var(--color1, #85aa9f)" stroke-linejoin="round"
                stroke-linecap="round" stroke-miterlimit="4" stroke-width="2"
                d="M26.667 22.667h-21.333M5.333 22.667l5.333-5.333M5.333 22.667l5.333 5.333"></path>
            <path fill="none" stroke="#85aa9f" style="stroke: var(--color1, #85aa9f)" stroke-linejoin="round"
                stroke-linecap="round" stroke-miterlimit="4" stroke-width="2"
                d="M5.333 9.333h21.333M26.667 9.333l-5.333-5.333M26.667 9.333l-5.333 5.333"></path>
        </symbol>
        <symbol id="icon-Vector-2" viewBox="0 0 38 32">
            <path fill="#fcfcfc" style="fill: var(--color1, #fcfcfc)" opacity="0.7"
                d="M19.2 0c1.697 0 3.325 0.674 4.525 1.875s1.875 2.828 1.875 4.526-0.674 3.325-1.875 4.525c-1.2 1.2-2.828 1.874-4.525 1.874s-3.325-0.674-4.525-1.874c-1.2-1.2-1.875-2.828-1.875-4.526s0.674-3.325 1.875-4.526c1.2-1.2 2.828-1.875 4.525-1.875zM19.2 25.6c0 0 12.8 0 12.8-3.2 0-3.84-6.24-8-12.8-8s-12.8 4.16-12.8 8c0 3.2 12.8 3.2 12.8 3.2z">
            </path>
            <path fill="none" stroke="#000" style="stroke: var(--color2, #000)" stroke-linejoin="miter"
                stroke-linecap="butt" stroke-miterlimit="4" stroke-width="1.6"
                d="M19.2 0.8c1.485 0 2.91 0.59 3.96 1.64s1.64 2.475 1.64 3.96c0 1.485-0.59 2.91-1.64 3.96s-2.475 1.64-3.96 1.64c-1.485 0-2.91-0.59-3.96-1.64s-1.64-2.475-1.64-3.96c0-1.485 0.59-2.91 1.64-3.96s2.474-1.64 3.96-1.64zM19.2 24.8v0h-0.033l-0.104-0.001c-0.091-0.001-0.226-0.002-0.399-0.005-0.345-0.006-0.838-0.019-1.431-0.043-1.188-0.049-2.764-0.148-4.334-0.344-1.582-0.198-3.108-0.489-4.218-0.905-0.558-0.209-0.957-0.431-1.204-0.647-0.237-0.207-0.277-0.355-0.277-0.454 0-1.503 1.265-3.293 3.571-4.766 2.257-1.441 5.308-2.434 8.429-2.434s6.172 0.993 8.429 2.434c2.305 1.472 3.571 3.263 3.571 4.766 0 0.1-0.040 0.247-0.277 0.454-0.247 0.216-0.646 0.437-1.204 0.647-1.111 0.416-2.636 0.707-4.218 0.905-1.57 0.196-3.147 0.295-4.334 0.344-0.593 0.025-1.086 0.037-1.431 0.043-0.172 0.003-0.307 0.005-0.399 0.005l-0.104 0.001h-0.033z">
            </path>
        </symbol>
        <symbol id="icon-arrow-right" viewBox="0 0 32 32">
            <path d="M4 16h20" stroke="#000" stroke-width="2" stroke-linecap="round" stroke-linejoin="round" />
            <path d="M18 10l6 6-6 6" fill="none" stroke="#000" stroke-width="2" stroke-linecap="round"
                stroke-linejoin="round" />
        </symbol>
        <symbol id="icon-search" viewBox="0 0 32 32">
            <path
                d="M31.008 27.231l-7.58-6.447c-0.784-0.705-1.622-1.029-2.299-0.998 1.789-2.096 2.87-4.815 2.87-7.787 0-6.627-5.373-12-12-12s-12 5.373-12 12 5.373 12 12 12c2.972 0 5.691-1.081 7.787-2.87-0.031 0.677 0.293 1.515 0.998 2.299l6.447 7.58c1.104 1.226 2.907 1.33 4.007 0.23s0.997-2.903-0.23-4.007zM12 20c-4.418 0-8-3.582-8-8s3.582-8 8-8 8 3.582 8 8-3.582 8-8 8z">
            </path>
        </symbol>


    </defs>
</svg>